PathFileType	4	(X/Y/Z)	/Users/itak/Documents/Research/Walk-IL/dataset/trc/00319_00011.trc
DataRate	CameraRate	NumFrames	NumMarkers	Units	OrigDataRate	OrigDataStartFrame	OrigNumFrames
100.000000	100.000000	4	57	mm	100.000000	510	583
Frame#	Time	RPSI			LPSI			L3			STRN			T10			C7			CLAV			RBAK			LBAK			LSHO			LUPA			LAEL			LAOL			LWPS			LFRA			LHPS			RSHO			RUPA			RAEL			RAOL			RWTS			RWPS			RFRA			RIFD			RHTS			RHPS			RBHD			LFHD			RFHD			LBHD			LHIP			RASI			LASI			LKNE			LTHI			LANK			LTIP			LTOE			LMT1			LMT5			LHEE			RKNE			RTHI			RANK			RTIP			RTOE			RMT5			RHEE			RHIP			RMT1			LWTS			LIFD			LHTS			*53			*54			*55			*56			
		X1	Y1	Z1	X2	Y2	Z2	X3	Y3	Z3	X4	Y4	Z4	X5	Y5	Z5	X6	Y6	Z6	X7	Y7	Z7	X8	Y8	Z8	X9	Y9	Z9	X10	Y10	Z10	X11	Y11	Z11	X12	Y12	Z12	X13	Y13	Z13	X14	Y14	Z14	X15	Y15	Z15	X16	Y16	Z16	X17	Y17	Z17	X18	Y18	Z18	X19	Y19	Z19	X20	Y20	Z20	X21	Y21	Z21	X22	Y22	Z22	X23	Y23	Z23	X24	Y24	Z24	X25	Y25	Z25	X26	Y26	Z26	X27	Y27	Z27	X28	Y28	Z28	X29	Y29	Z29	X30	Y30	Z30	X31	Y31	Z31	X32	Y32	Z32	X33	Y33	Z33	X34	Y34	Z34	X35	Y35	Z35	X36	Y36	Z36	X37	Y37	Z37	X38	Y38	Z38	X39	Y39	Z39	X40	Y40	Z40	X41	Y41	Z41	X42	Y42	Z42	X43	Y43	Z43	X44	Y44	Z44	X45	Y45	Z45	X46	Y46	Z46	X47	Y47	Z47	X48	Y48	Z48	X49	Y49	Z49	X50	Y50	Z50	X51	Y51	Z51	X52	Y52	Z52	X53	Y53	Z53	X54	Y54	Z54	X55	Y55	Z55	X56	Y56	Z56	X57	Y57	Z57	

511	5.100000000000001	735.6521606445312	967.6525268554688	134.3349609375	726.5311889648438	970.926513671875	3.642614126205444	725.4055786132812	1031.081787109375	73.04130554199219	943.335693359375	1222.903930664062	43.73473358154297	705.6971435546875	1151.308837890625	62.54133987426758	730.3510131835938	1401.224853515625	37.29079437255859	890.1004638671875	1342.922241210938	38.86268615722656	694.0467529296875	1261.223754882812	112.1894073486328	719.9451904296875	1361.529907226562	-60.15979766845703	802.7105712890625	1375.675170898438	-119.7248001098633	765.9003295898438	1260.82177734375	-185.6035919189453	744.6038208007812	1057.270751953125	-194.0750122070312	690.3829345703125	1055.40673828125	-127.6178359985352	736.9584350585938	797.2720947265625	-214.4630126953125	735.96435546875	953.0430908203125	-202.9279174804688	714.6998901367188	730.3126220703125	-207.5466766357422	796.440185546875	1392.318603515625	196.9306945800781	794.8184814453125	1332.247680664062	266.4308166503906	869.049072265625	1082.101684570312	337.3262939453125	827.3969116210938	1048.720825195312	258.7241516113281	1071.013793945312	941.2109985351562	282.6973266601562	1054.81298828125	908.9625854492188	350.2897338867188	920.5536499023438	1031.40673828125	348.9442749023438	1185.693237304688	810.9319458007812	294.5429077148438	1152.8994140625	875.7324829101562	295.7320556640625	1114.199462890625	850.8430786132812	346.681396484375	752.4811401367188	1590.03369140625	112.407341003418	911.2605590820312	1635.251953125	-15.03901100158691	905.8759765625	1637.594970703125	85.89488983154297	734.9271240234375	1575.876342773438	-30.71809577941895	814.12451171875	923.3855590820312	-105.0866394042969	923.8759765625	947.9793701171875	192.426025390625	933.9235229492188	954.22607421875	-46.84880065917969	959.7125854492188	477.3450012207031	-98.76087188720703	933.6578369140625	612.3805541992188	-109.9472274780273	765.32470703125	80.96478271484375	-90.60423278808594	860.0399169921875	273.2794799804688	-108.0490493774414	974.3179321289062	65.55516815185547	-55.2374382019043	909.6423950195312	51.97607040405273	-7.176689147949219	886.2940063476562	67.45235443115234	-116.6603775024414	738.9906616210938	79.47686767578125	-19.59319305419922	896.542236328125	449.817626953125	186.373779296875	910.1754760742188	709.6643676757812	224.4783020019531	842.174072265625	43.77287673950195	131.5617980957031	907.9365844726562	330.580810546875	165.6461639404297	1035.327758789062	30.79654693603516	72.53738403320312	941.9563598632812	29.00724983215332	144.6416625976562	791.0734252929688	46.01754379272461	83.57500457763672	822.4725952148438	912.6843872070312	237.6997528076172	976.6901245117188	30.29490852355957	32.19137954711914	784.6781616210938	794.2658081054688	-164.5001831054688	759.988037109375	645.9866943359375	-153.8023834228516	766.4334716796875	728.656494140625	-170.796875	nan	nan	nan	nan	nan	nan	nan	nan	nan	nan	nan	nan	
512	5.11	739.1301879882812	968.0236206054688	134.1645355224609	729.8897705078125	971.3555297851562	3.471013069152832	729.2056274414062	1030.95166015625	73.19966125488281	946.5891723632812	1223.06005859375	43.61445617675781	708.9501953125	1151.293701171875	62.80144882202148	733.3911743164062	1401.171630859375	37.49703216552734	893.2819213867188	1343.067260742188	38.84428024291992	697.4188842773438	1261.130859375	112.4753799438477	722.8739013671875	1361.493530273438	-59.84427261352539	805.5526733398438	1375.795776367188	-119.5809555053711	768.1229248046875	1261.138305664062	-185.3893890380859	745.8268432617188	1057.765625	-193.8018035888672	692.0966796875	1056.060302734375	-126.955924987793	736.7197265625	797.9235229492188	-214.66552734375	736.6224365234375	953.6096801757812	-202.7942657470703	714.097900390625	730.951904296875	-207.7301940917969	799.7396240234375	1392.416259765625	197.0442504882812	798.2514038085938	1332.386840820312	266.5759887695312	873.2286376953125	1082.223388671875	337.1031494140625	831.7269897460938	1048.812377929688	258.3784484863281	1076.755981445312	944.2348022460938	281.9326782226562	1060.857421875	911.30859375	349.3418273925781	925.1181640625	1032.065185546875	348.6599731445312	1193.2470703125	815.4873046875	293.1815795898438	1159.527465820312	879.8449096679688	294.7535400390625	1120.973022460938	854.6251220703125	345.5087890625	755.5427856445312	1590.031860351562	112.7343292236328	914.2184448242188	1635.425537109375	-14.78343296051025	908.888916015625	1637.628662109375	86.15196990966797	737.8675537109375	1576.018432617188	-30.42897987365723	817.5186767578125	923.39013671875	-105.1510314941406	927.26611328125	947.952880859375	192.2332000732422	937.2966918945312	954.02734375	-46.87589263916016	960.00244140625	476.1032409667969	-98.16529846191406	934.6061401367188	611.9591674804688	-109.9030227661133	777.26025390625	74.73760986328125	-91.55010986328125	865.9811401367188	269.9999084472656	-108.2804718017578	986.7684936523438	67.15190124511719	-55.84908294677734	922.5677490234375	50.9632682800293	-8.079026222229004	898.7736206054688	66.12113189697266	-117.4200286865234	750.7460327148438	71.97735595703125	-20.64809989929199	898.0126342773438	449.7003479003906	186.3260955810547	912.7589111328125	709.5210571289062	224.2655334472656	842.1829833984375	43.79290008544922	131.5658264160156	908.9891967773438	330.4545288085938	165.5981750488281	1035.3408203125	30.80309867858887	72.48262023925781	941.9674682617188	28.99777030944824	144.6407012939453	791.0689086914062	46.1467170715332	83.58653259277344	825.8031616210938	912.875	237.6013336181641	976.6665649414062	30.24107933044434	32.22783660888672	784.7168579101562	794.5233154296875	-164.9722900390625	759.5916748046875	646.64697265625	-154.1923217773438	765.9939575195312	729.3323364257812	-171.2090606689453	nan	nan	nan	nan	nan	nan	nan	nan	nan	nan	nan	nan	
513	5.12	742.52197265625	968.3348388671875	133.9741821289062	733.2006225585938	971.68798828125	3.298582553863525	732.8933715820312	1030.8037109375	73.28863525390625	949.7510375976562	1223.163818359375	43.45737838745117	712.0823364257812	1151.224487304688	62.98976898193359	736.3823852539062	1401.060668945312	37.65096664428711	896.3822021484375	1343.156005859375	38.78936004638672	700.717529296875	1260.992431640625	112.6992721557617	725.7469482421875	1361.404663085938	-59.59696578979492	808.3383178710938	1375.857421875	-119.4904479980469	770.4087524414062	1261.358642578125	-185.2128601074219	747.2948608398438	1058.149291992188	-193.5253143310547	694.051513671875	1056.561157226562	-126.3240127563477	736.9082641601562	798.4810791015625	-214.8868865966797	737.60986328125	954.0466918945312	-202.6694030761719	713.901123046875	731.4461669921875	-207.9111175537109	802.9524536132812	1392.471801757812	197.1126708984375	801.5662841796875	1332.465087890625	266.6702270507812	877.017578125	1082.159301757812	336.7196655273438	835.6849975585938	1048.809814453125	257.917236328125	1081.923461914062	946.8782348632812	281.1213989257812	1066.229370117188	913.25244140625	348.2867126464844	929.1860961914062	1032.473876953125	348.2363586425781	1200.024169921875	819.5056762695312	291.7550048828125	1165.486206054688	883.5116577148438	293.7047424316406	1126.945190429688	858.109375	344.2707214355469	758.5039672851562	1589.956787109375	113.0159454345703	917.082275390625	1635.56201171875	-14.54790115356445	911.7936401367188	1637.623413085938	86.38238525390625	740.72216796875	1576.092529296875	-30.18511772155762	820.7765502929688	923.2506103515625	-105.1910400390625	930.5232543945312	947.8941040039062	192.0440673828125	940.576171875	953.766357421875	-46.95106887817383	960.09130859375	474.7316284179688	-97.61367797851562	935.2297973632812	611.4251708984375	-109.8954925537109	788.5606689453125	69.01026916503906	-92.31784057617188	871.5577392578125	266.8948059082031	-108.4266662597656	998.2982788085938	68.66574096679688	-56.29887008666992	934.6360473632812	50.09774398803711	-8.822389602661133	910.4072265625	64.94849395751953	-118.02001953125	761.873779296875	65.12220764160156	-21.53061103820801	899.4404296875	449.5966796875	186.2795867919922	915.3134155273438	709.3727416992188	224.0693969726562	842.1873779296875	43.80459594726562	131.5744781494141	910.006103515625	330.3370056152344	165.5565643310547	1035.3515625	30.80938339233398	72.43562316894531	941.9723510742188	28.97732543945312	144.6504364013672	791.0733642578125	46.26198196411133	83.60271453857422	829.0588989257812	913.0635986328125	237.4826965332031	976.6275024414062	30.16048240661621	32.2855110168457	785.0944213867188	794.705810546875	-165.3753509521484	759.59423828125	647.157470703125	-154.5742492675781	765.9557495117188	729.8604736328125	-171.6155700683594	nan	nan	nan	nan	nan	nan	nan	nan	nan	nan	nan	nan	
514	5.13	745.8341064453125	968.5719604492188	133.7695922851562	736.446533203125	971.9149169921875	3.125119686126709	736.45556640625	1030.63916015625	73.30194854736328	952.8236083984375	1223.211791992188	43.27194976806641	715.1019287109375	1151.091430664062	63.09673690795898	739.3224487304688	1400.897094726562	37.75336456298828	899.3965454101562	1343.185302734375	38.7011604309082	703.9404296875	1260.811767578125	112.8639526367188	728.5775146484375	1361.268188476562	-59.42707824707031	811.0722045898438	1375.85693359375	-119.4523773193359	772.7692260742188	1261.478637695312	-185.0803680419922	749.0147705078125	1058.412475585938	-193.2579040527344	696.2428588867188	1056.896240234375	-125.7369613647461	737.5245361328125	798.9237670898438	-215.1262512207031	738.9285278320312	954.34765625	-202.5653381347656	714.1348876953125	731.8006591796875	-208.0932464599609	806.0789794921875	1392.480346679688	197.1385192871094	804.7650756835938	1332.470336914062	266.7136840820312	880.4234008789062	1081.91650390625	336.1957702636719	839.2841796875	1048.709716796875	257.3444519042969	1086.54541015625	949.1414184570312	280.2797241210938	1070.946044921875	914.7781372070312	347.1315002441406	932.7725830078125	1032.63037109375	347.6816711425781	1206.03466796875	822.949951171875	290.2697448730469	1170.7861328125	886.69775390625	292.5909118652344	1132.138671875	861.2471923828125	342.9833374023438	761.3659057617188	1589.81005859375	113.2502517700195	919.85498046875	1635.653686523438	-14.3364896774292	914.5950927734375	1637.57763671875	86.58334350585938	743.4979248046875	1576.09765625	-29.98628044128418	823.90673828125	922.9806518554688	-105.2181930541992	933.6546630859375	947.8036499023438	191.8541564941406	943.7611694335938	953.4520263671875	-47.08301162719727	960.0189208984375	473.2771911621094	-97.114990234375	935.599609375	610.797119140625	-109.9492568969727	799.094970703125	63.82964706420898	-92.87592315673828	876.7173461914062	264.00146484375	-108.4855804443359	1008.851501464844	69.96917724609375	-56.59444808959961	945.74560546875	49.29673767089844	-9.389338493347168	921.1031494140625	63.85868453979492	-118.4482498168945	772.2386474609375	58.97739791870117	-22.20102310180664	900.8318481445312	449.5116577148438	186.2439727783203	917.8397216796875	709.224609375	223.8912048339844	842.1890869140625	43.80856704711914	131.5877075195312	910.990234375	330.2172546386719	165.5290069580078	1035.359619140625	30.81400299072266	72.4005126953125	941.9713134765625	28.9487476348877	144.6696014404297	791.0912475585938	46.35917663574219	83.62489318847656	832.2476196289062	913.2437133789062	237.3473815917969	976.5730590820312	30.0524959564209	32.36327743530273	785.8216552734375	794.8312377929688	-165.7182159423828	760.025634765625	647.52734375	-154.9584045410156	766.3477172851562	730.249267578125	-172.0239868164062	nan	nan	nan	nan	nan	nan	nan	nan	nan	nan	nan	nan	
